<?xml version="1.0" standalone="no"?><!DOCTYPE svg PUBLIC "-//W3C//DTD SVG 1.1//EN" "http://www.w3.org/Graphics/SVG/1.1/DTD/svg11.dtd"><svg class="icon" width="200px" height="199.80px" viewBox="0 0 1025 1024" version="1.1" xmlns="http://www.w3.org/2000/svg"><path d="M512 0.034519C229.224204 0.034519 0 229.189685 0 512.034519s229.293241 511.930962 512 511.930962 512-229.224204 512-512S794.775796 0.034519 512 0.034519zM512 955.396056c-244.513872 0-443.430575-198.847666-443.430575-443.499612S267.483971 68.465869 512 68.465869s443.430575 198.985741 443.430575 443.430575S756.582909 955.396056 512 955.396056z"  /><path d="M534.079083 348.497421c-6.720378-6.720378-15.496781-9.941412-24.342221-9.941412s-17.621844 3.223192-24.342221 9.941412L263.028889 570.86533c-13.371718 13.371718-13.371718 35.10777 0 48.47733 13.371718 13.371718 35.10777 13.371718 48.47733 0l198.230642-198.230642 198.230642 198.230642c13.371718 13.371718 35.10777 13.371718 48.47733 0 13.371718-13.371718 13.371718-35.10777 0-48.47733L534.079083 348.497421z"  /></svg>